<?xml version="1.0" encoding="UTF-8"?> <svg xmlns="http://www.w3.org/2000/svg" id="Layer_1" data-name="Layer 1" viewBox="0 0 217.4 216.5"><defs><style>.cls-1{fill:#001628;}.cls-2{fill:#00b6ac;}.cls-3{fill:#fff;}</style></defs><rect class="cls-1" y="-0.2" width="216.7" height="216.69" rx="108.3"></rect><path class="cls-2" d="M116.9,139.5H77.4a1.5,1.5,0,0,1,0-3H82a3.3,3.3,0,0,0,3.2-3.2v-9.5a1.5,1.5,0,0,1,3,0v9.5a6.2,6.2,0,0,1-.9,3.2H107a7.3,7.3,0,0,1-.9-3.2V123a1.5,1.5,0,0,1,1.5-1.5,1.5,1.5,0,0,1,1.5,1.5v10.3a3.3,3.3,0,0,0,3.3,3.2h4.5a1.5,1.5,0,0,1,0,3Z"></path><path class="cls-2" d="M148.5,124.5H45.9a6,6,0,0,1-6-5.9V46.4a6,6,0,0,1,6-6H148.5a5.9,5.9,0,0,1,5.9,6v72.2A5.9,5.9,0,0,1,148.5,124.5ZM45.9,43.4a3,3,0,0,0-3,3v72.2a3,3,0,0,0,3,2.9H148.5a2.9,2.9,0,0,0,2.9-2.9V46.4a2.9,2.9,0,0,0-2.9-3Z"></path><rect class="cls-1" x="134.8" y="88.4" width="36.3" height="58.95" rx="4.7"></rect><path class="cls-2" d="M166.4,148.9h-27a6.1,6.1,0,0,1-6.1-6.2V93.1a6.1,6.1,0,0,1,6.1-6.2h27a6.2,6.2,0,0,1,6.2,6.2v49.6A6.2,6.2,0,0,1,166.4,148.9Zm-27-59a3.1,3.1,0,0,0-3.1,3.2v49.6a3.1,3.1,0,0,0,3.1,3.2h27a3.2,3.2,0,0,0,3.2-3.2V93.1a3.2,3.2,0,0,0-3.2-3.2Z"></path><path class="cls-1" d="M149.2,105.1h-6.5a.6.6,0,0,1-.5-.6V98a.5.5,0,0,1,.5-.5h6.5a.6.6,0,0,1,.6.5v6.5A.6.6,0,0,1,149.2,105.1Z"></path><path class="cls-3" d="M149.2,106.1h-6.5a1.6,1.6,0,0,1-1.5-1.6V98a1.5,1.5,0,0,1,1.5-1.5h6.5a1.6,1.6,0,0,1,1.6,1.5v6.5A1.6,1.6,0,0,1,149.2,106.1Zm-6-2h5.6V98.5h-5.6Z"></path><path class="cls-1" d="M162.8,105.1h-6.5a.6.6,0,0,1-.6-.6V98a.6.6,0,0,1,.6-.5h6.5a.5.5,0,0,1,.5.5v6.5A.6.6,0,0,1,162.8,105.1Z"></path><path class="cls-3" d="M162.8,106.1h-6.5a1.6,1.6,0,0,1-1.6-1.6V98a1.6,1.6,0,0,1,1.6-1.5h6.5a1.5,1.5,0,0,1,1.5,1.5v6.5A1.6,1.6,0,0,1,162.8,106.1Zm-6.1-2h5.6V98.5h-5.6Z"></path><path class="cls-1" d="M149.2,119.3h-6.5a.5.5,0,0,1-.5-.5v-6.5a.5.5,0,0,1,.5-.5h6.5a.6.6,0,0,1,.6.5v6.5A.6.6,0,0,1,149.2,119.3Z"></path><path class="cls-3" d="M149.2,120.3h-6.5a1.5,1.5,0,0,1-1.5-1.5v-6.5a1.5,1.5,0,0,1,1.5-1.5h6.5a1.5,1.5,0,0,1,1.6,1.5v6.5A1.6,1.6,0,0,1,149.2,120.3Zm-6-2h5.6v-5.5h-5.6Z"></path><path class="cls-1" d="M162.8,119.3h-6.5a.6.6,0,0,1-.6-.5v-6.5a.6.6,0,0,1,.6-.5h6.5a.5.5,0,0,1,.5.5v6.5A.5.5,0,0,1,162.8,119.3Z"></path><path class="cls-3" d="M162.8,120.3h-6.5a1.6,1.6,0,0,1-1.6-1.5v-6.5a1.5,1.5,0,0,1,1.6-1.5h6.5a1.5,1.5,0,0,1,1.5,1.5v6.5A1.5,1.5,0,0,1,162.8,120.3Zm-6.1-2h5.6v-5.5h-5.6Z"></path><path class="cls-1" d="M149.2,133.6h-6.5a.5.5,0,0,1-.5-.5v-6.5a.6.6,0,0,1,.5-.6h6.5a.6.6,0,0,1,.6.6v6.5A.6.6,0,0,1,149.2,133.6Z"></path><path class="cls-3" d="M149.2,134.6h-6.5a1.5,1.5,0,0,1-1.5-1.5v-6.5a1.6,1.6,0,0,1,1.5-1.6h6.5a1.6,1.6,0,0,1,1.6,1.6v6.5A1.6,1.6,0,0,1,149.2,134.6Zm-6-2h5.6V127h-5.6Z"></path><path class="cls-3" d="M72.2,88.9H68.4a1.5,1.5,0,0,1-1.5-1.5,1.5,1.5,0,0,1,1.5-1.5h3.8a1.5,1.5,0,0,1,1.5,1.5A1.5,1.5,0,0,1,72.2,88.9Z"></path><path class="cls-3" d="M90.5,97H77.6a1.4,1.4,0,0,1-1.5-1.5A1.5,1.5,0,0,1,77.6,94H90.5A1.5,1.5,0,0,1,92,95.5,1.5,1.5,0,0,1,90.5,97Z"></path><path class="cls-3" d="M90.5,105.1H77.6a1.4,1.4,0,0,1-1.5-1.5,1.5,1.5,0,0,1,1.5-1.5H90.5a1.5,1.5,0,0,1,1.5,1.5A1.5,1.5,0,0,1,90.5,105.1Z"></path><path class="cls-3" d="M90.5,88.9H78a1.5,1.5,0,0,1-1.5-1.5A1.5,1.5,0,0,1,78,85.9H90.5A1.5,1.5,0,0,1,92,87.4,1.5,1.5,0,0,1,90.5,88.9Z"></path><path class="cls-3" d="M90.5,75.8H78a1.5,1.5,0,0,1-1.5-1.5A1.5,1.5,0,0,1,78,72.8H90.5A1.5,1.5,0,0,1,92,74.3,1.5,1.5,0,0,1,90.5,75.8Z"></path><path class="cls-3" d="M110.7,97H77.6a1.4,1.4,0,0,1-1.5-1.5A1.5,1.5,0,0,1,77.6,94h33.1a1.5,1.5,0,0,1,1.5,1.5A1.4,1.4,0,0,1,110.7,97Z"></path><path class="cls-3" d="M110.7,88.9H98.3a1.4,1.4,0,0,1-1.5-1.5,1.5,1.5,0,0,1,1.5-1.5h12.4a1.5,1.5,0,0,1,1.5,1.5A1.4,1.4,0,0,1,110.7,88.9Z"></path><path class="cls-3" d="M110.7,75.8H98.3a1.5,1.5,0,0,1-1.5-1.5,1.4,1.4,0,0,1,1.5-1.5h12.4a1.4,1.4,0,0,1,1.5,1.5A1.5,1.5,0,0,1,110.7,75.8Z"></path><path class="cls-3" d="M72.2,113.3H68.4a1.5,1.5,0,0,1-1.5-1.5,1.5,1.5,0,0,1,1.5-1.5h3.8a1.5,1.5,0,0,1,1.5,1.5A1.5,1.5,0,0,1,72.2,113.3Z"></path><path class="cls-3" d="M100.8,113.3H78a1.5,1.5,0,0,1-1.5-1.5,1.5,1.5,0,0,1,1.5-1.5h22.8a1.5,1.5,0,0,1,1.5,1.5A1.5,1.5,0,0,1,100.8,113.3Z"></path><path class="cls-3" d="M58.7,79.3a1.1,1.1,0,0,1-.8-.2,1.5,1.5,0,0,1-.6-2L61.4,70a1.5,1.5,0,0,1,2-.6,1.6,1.6,0,0,1,.6,2.1l-4,7.1A1.7,1.7,0,0,1,58.7,79.3Z"></path><path class="cls-3" d="M54.5,79.3a1.6,1.6,0,0,1-1.1-.5l-3.5-3.5a1.7,1.7,0,0,1,0-2.1l3.5-3.5a1.7,1.7,0,0,1,2.1,0,1.6,1.6,0,0,1,0,2.2l-2.4,2.4,2.4,2.4a1.4,1.4,0,0,1,0,2.1A1.4,1.4,0,0,1,54.5,79.3Z"></path><path class="cls-3" d="M66.9,79.3a1.6,1.6,0,0,1-1.1-.5,1.5,1.5,0,0,1,0-2.1l2.4-2.4-2.4-2.4a1.6,1.6,0,0,1,0-2.2,1.7,1.7,0,0,1,2.1,0l3.5,3.5a1.4,1.4,0,0,1,0,2.1l-3.5,3.5A1.6,1.6,0,0,1,66.9,79.3Z"></path><rect class="cls-2" x="41.4" y="59.5" width="111.5" height="2"></rect><path class="cls-3" d="M48.9,54.8a3.2,3.2,0,1,1,0-6.3,3.2,3.2,0,0,1,0,6.3Zm0-4.3a1.1,1.1,0,0,0-1.2,1.1,1.2,1.2,0,0,0,1.2,1.2A1.1,1.1,0,0,0,50,51.6,1.1,1.1,0,0,0,48.9,50.5Z"></path><path class="cls-3" d="M56.5,54.8a3.2,3.2,0,1,1,3.2-3.2A3.1,3.1,0,0,1,56.5,54.8Zm0-4.3a1.1,1.1,0,0,0-1.1,1.1,1.1,1.1,0,0,0,1.1,1.2,1.2,1.2,0,0,0,1.2-1.2A1.1,1.1,0,0,0,56.5,50.5Z"></path><path class="cls-3" d="M64.2,54.8a3.2,3.2,0,1,1,0-6.3,3.2,3.2,0,0,1,0,6.3Zm0-4.3A1.2,1.2,0,0,0,63,51.6a1.2,1.2,0,0,0,1.2,1.2,1.1,1.1,0,0,0,1.1-1.2A1.1,1.1,0,0,0,64.2,50.5Z"></path><path class="cls-3" d="M158.2,159.5a.9.9,0,0,1-.7-.3l-5-4.9-4.9,4.9a1,1,0,1,1-1.4-1.4l5.6-5.7a1.2,1.2,0,0,1,1.4,0l5.7,5.7a1,1,0,0,1,0,1.4A1.1,1.1,0,0,1,158.2,159.5Z"></path><path class="cls-3" d="M152.5,156.6a1.1,1.1,0,0,1-1-1v-2.7a1,1,0,0,1,1-1,.9.9,0,0,1,1,1v2.7A1,1,0,0,1,152.5,156.6Z"></path><path class="cls-3" d="M152.5,163.2a1.1,1.1,0,0,1-1-1v-3.3a1,1,0,0,1,1-1,.9.9,0,0,1,1,1v3.3A1,1,0,0,1,152.5,163.2Z"></path><path class="cls-3" d="M152.5,169.2h-2.7a.9.9,0,0,1-1-1,1,1,0,0,1,1-1h1.7v-1.7a1,1,0,0,1,1-1,.9.9,0,0,1,1,1v2.7A.9.9,0,0,1,152.5,169.2Z"></path><path class="cls-3" d="M144.2,169.2h-5.5a.9.9,0,0,1-1-1,1,1,0,0,1,1-1h5.5a1,1,0,0,1,1,1A.9.9,0,0,1,144.2,169.2Zm-11,0h-5.6a1,1,0,0,1-1-1,1.1,1.1,0,0,1,1-1h5.6a1.1,1.1,0,0,1,1,1A1,1,0,0,1,133.2,169.2Zm-11.1,0h-5.6a1,1,0,0,1-1-1,1.1,1.1,0,0,1,1-1h5.6a1.1,1.1,0,0,1,1,1A1,1,0,0,1,122.1,169.2Zm-11.1,0h-5.5a.9.9,0,0,1-1-1,1,1,0,0,1,1-1H111a1.1,1.1,0,0,1,1,1A1,1,0,0,1,111,169.2Z"></path><path class="cls-3" d="M99.9,169.2H97.2a.9.9,0,0,1-1-1v-2.7a.9.9,0,0,1,1-1,1,1,0,0,1,1,1v1.7h1.7a1,1,0,0,1,1,1A.9.9,0,0,1,99.9,169.2Z"></path><path class="cls-3" d="M97.2,159.6a.9.9,0,0,1-1-1v-6.8a.9.9,0,0,1,1-1,1,1,0,0,1,1,1v6.8A1,1,0,0,1,97.2,159.6Z"></path><path class="cls-3" d="M97.2,145.9a1,1,0,0,1-1-1v-2.7a.9.9,0,0,1,1-1,1,1,0,0,1,1,1v2.7A1.1,1.1,0,0,1,97.2,145.9Z"></path><path class="cls-2" d="M158.1,134.1a1.2,1.2,0,0,1-1-.5l-2.7-2.6a1.6,1.6,0,0,1,0-2.2,1.5,1.5,0,0,1,2.1,0l1.6,1.6,4.4-4.4a1.5,1.5,0,1,1,2.1,2.1l-5.4,5.5A1.6,1.6,0,0,1,158.1,134.1Z"></path></svg> 